<?xml version="1.0" encoding="utf-8"?>
<!-- Generator: Adobe Illustrator 24.2.0, SVG Export Plug-In . SVG Version: 6.00 Build 0)  -->
<svg version="1.1" id="Layer_1" xmlns="http://www.w3.org/2000/svg" xmlns:xlink="http://www.w3.org/1999/xlink" x="0px" y="0px"
	 viewBox="0 0 2000 267" style="enable-background:new 0 0 2000 267;" xml:space="preserve">
<style type="text/css">
	.st0{display:none;}
	.st1{display:inline;fill-rule:evenodd;clip-rule:evenodd;fill:url(#SVGID_1_);}
	.st2{fill:url(#SVGID_2_);}
	.st3{fill:#FFC671;}
</style>
<g id="Layer_1_1_">
</g>
<g id="Layer_2_1_" class="st0">
	
		<linearGradient id="SVGID_1_" gradientUnits="userSpaceOnUse" x1="8349.7998" y1="996.1" x2="8349.7998" y2="996.1" gradientTransform="matrix(1 0 0 -1 0 207)">
		<stop  offset="0" style="stop-color:#57BBC1;stop-opacity:0.25"/>
		<stop  offset="1" style="stop-color:#015871"/>
	</linearGradient>
	<path class="st1" d="M8349.8-789.1"/>
</g>
<g id="Layer_3">
	
		<linearGradient id="SVGID_2_" gradientUnits="userSpaceOnUse" x1="-1742.8" y1="207.7" x2="-1742.8" y2="207.7" gradientTransform="matrix(1 0 0 -1 0 207)">
		<stop  offset="0" style="stop-color:#FFC671;stop-opacity:0.25"/>
		<stop  offset="1" style="stop-color:#FF9E0C"/>
	</linearGradient>
	<path class="st2" d="M-1742.8-0.7"/>
</g>
<path class="st3" d="M1760.1,129c-49.3,16.3-103.4,1.4-138.8-36.5c-109-116.5-148.5,39-300.1,38.1c-26.2-0.2-52.7-9-70.5-28.2
	C1149.3-7,1000.1,0,1000.1,0c0,0.1,0,0.2,0,0.2c-72.9,3-148.8,100-236.5,128.9c-49.3,16.3-103.4,1.4-138.8-36.4
	c-109-116.5-148.5,38.9-300.1,38c-26.2-0.2-51.2-10.5-70.5-28.2C132.2-9.7-0.2,0.1-0.2,0.1c0,35.5,0.2,267,0.2,267l1000.1-0.2
	c0,0,0,0,0,0L2000,267l0-267C1926.1,0,1849.1,99.6,1760.1,129z"/>
</svg>
