<?xml version="1.0" encoding="utf-8"?>
<!-- Generator: Adobe Illustrator 24.2.0, SVG Export Plug-In . SVG Version: 6.00 Build 0)  -->
<svg version="1.1" id="Layer_1" xmlns="http://www.w3.org/2000/svg" xmlns:xlink="http://www.w3.org/1999/xlink" x="0px" y="0px"
	 viewBox="0 0 1000 200" style="enable-background:new 0 0 1000 200;" xml:space="preserve">
<style type="text/css">
	.st0{display:none;}
	.st1{display:inline;fill-rule:evenodd;clip-rule:evenodd;fill:url(#SVGID_1_);}
	.st2{fill:url(#SVGID_2_);}
	.st3{fill:#FFC671;}
	.st4{fill:#FF9E0C;}
</style>
<g id="Layer_1_1_">
</g>
<g id="Layer_2_1_" class="st0">
	
		<linearGradient id="SVGID_1_" gradientUnits="userSpaceOnUse" x1="8349.7998" y1="992.6" x2="8349.7998" y2="992.6" gradientTransform="matrix(1 0 0 -1 0 200)">
		<stop  offset="0" style="stop-color:#57BBC1;stop-opacity:0.25"/>
		<stop  offset="1" style="stop-color:#015871"/>
	</linearGradient>
	<path class="st1" d="M8349.8-792.6"/>
</g>
<g id="Layer_3">
	
		<linearGradient id="SVGID_2_" gradientUnits="userSpaceOnUse" x1="-1742.8" y1="204.2" x2="-1742.8" y2="204.2" gradientTransform="matrix(1 0 0 -1 0 200)">
		<stop  offset="0" style="stop-color:#FFC671;stop-opacity:0.25"/>
		<stop  offset="1" style="stop-color:#FF9E0C"/>
	</linearGradient>
	<path class="st2" d="M-1742.8-4.2"/>
</g>
<g id="Layer_4">
	<path class="st3" d="M0,312.2c0,0,128.7-9.8,250.6,102.4c19.2,17.7,44.3,28,70.5,28.2c151.7,0.9,191.2-154.5,300.2-38
		c35.4,37.8,89.5,52.7,138.8,36.4c89-29.3,165.9-128.9,239.9-128.9L999.9,579L0,579C0,579,0,347.7,0,312.2z"/>
</g>
<g id="Layer_4_1_">
	<path class="st4" d="M0,0.2c0,0,145.7-8.3,274,94.1c174.4,139.2,257.6-154.4,367.8-6.7S895.2,0.2,1000,0.2L999.9,200L0,200
		C0,200,0,26.8,0,0.2z"/>
</g>
</svg>
