<?xml version="1.0" encoding="utf-8"?>
<!-- Generator: Adobe Illustrator 24.2.0, SVG Export Plug-In . SVG Version: 6.00 Build 0)  -->
<svg version="1.1" id="Layer_1" xmlns="http://www.w3.org/2000/svg" xmlns:xlink="http://www.w3.org/1999/xlink" x="0px" y="0px"
	 viewBox="0 0 2000 200" style="enable-background:new 0 0 2000 200;" xml:space="preserve">
<style type="text/css">
	.st0{display:none;}
	.st1{display:inline;fill-rule:evenodd;clip-rule:evenodd;fill:url(#SVGID_1_);}
	.st2{fill:url(#SVGID_2_);}
	.st3{fill:#FF9E0C;}
</style>
<g id="Layer_1_1_">
</g>
<g id="Layer_2_1_" class="st0">
	
		<linearGradient id="SVGID_1_" gradientUnits="userSpaceOnUse" x1="8349.7998" y1="1292.6" x2="8349.7998" y2="1292.6" gradientTransform="matrix(1 0 0 -1 0 800)">
		<stop  offset="0" style="stop-color:#57BBC1;stop-opacity:0.25"/>
		<stop  offset="1" style="stop-color:#015871"/>
	</linearGradient>
	<path class="st1" d="M8349.8-492.6"/>
</g>
<g id="Layer_3">
	
		<linearGradient id="SVGID_2_" gradientUnits="userSpaceOnUse" x1="-1742.8" y1="504.2" x2="-1742.8" y2="504.2" gradientTransform="matrix(1 0 0 -1 0 800)">
		<stop  offset="0" style="stop-color:#FFC671;stop-opacity:0.25"/>
		<stop  offset="1" style="stop-color:#FF9E0C"/>
	</linearGradient>
	<path class="st2" d="M-1742.8,295.8"/>
</g>
<path class="st3" d="M1641.7,87.5c-110.2-147.7-193.4,145.9-367.9,6.7C1145.5-8.2,999.7,0.2,999.7,0.2c0,0,0,0,0,0
	C895,1.1,751.9,235,642,87.5C531.8-60.2,448.6,233.4,274.1,94.2C145.8-8.2,0,0.2,0,0.2C0,26.8,0,200,0,200l999.7,0c0,0,0,0,0,0
	l1000.2,0L2000,0.2C1895.2,0.2,1751.8,235.2,1641.7,87.5z"/>
</svg>
