<?xml version="1.0" encoding="utf-8"?>
<!-- Generator: Adobe Illustrator 24.2.0, SVG Export Plug-In . SVG Version: 6.00 Build 0)  -->
<svg version="1.1" id="Layer_1" xmlns="http://www.w3.org/2000/svg" xmlns:xlink="http://www.w3.org/1999/xlink" x="0px" y="0px"
	 viewBox="0 0 1000 267" style="enable-background:new 0 0 1000 267;" xml:space="preserve">
<style type="text/css">
	.st0{display:none;}
	.st1{display:inline;fill-rule:evenodd;clip-rule:evenodd;fill:url(#SVGID_1_);}
	.st2{fill:url(#SVGID_2_);}
	.st3{fill:#FFC671;}
	.st4{fill:#FF9E0C;}
</style>
<g id="Layer_1_1_">
</g>
<g id="Layer_2_1_" class="st0">
	
		<linearGradient id="SVGID_1_" gradientUnits="userSpaceOnUse" x1="8349.7998" y1="681.1" x2="8349.7998" y2="681.1" gradientTransform="matrix(1 0 0 -1 0 -423)">
		<stop  offset="0" style="stop-color:#57BBC1;stop-opacity:0.25"/>
		<stop  offset="1" style="stop-color:#015871"/>
	</linearGradient>
	<path class="st1" d="M8349.8-1104.1"/>
</g>
<g id="Layer_3">
	
		<linearGradient id="SVGID_2_" gradientUnits="userSpaceOnUse" x1="-1742.8" y1="-107.3" x2="-1742.8" y2="-107.3" gradientTransform="matrix(1 0 0 -1 0 -423)">
		<stop  offset="0" style="stop-color:#FFC671;stop-opacity:0.25"/>
		<stop  offset="1" style="stop-color:#FF9E0C"/>
	</linearGradient>
	<path class="st2" d="M-1742.8-315.7"/>
</g>
<g id="Layer_4">
	<path class="st3" d="M0,0.7c0,0,128.7-9.8,250.6,102.4c19.2,17.7,44.3,28,70.5,28.2c151.7,0.9,191.2-154.5,300.2-38
		c35.4,37.8,89.5,52.7,138.8,36.4C849.1,100.3,926.1,0.7,1000,0.7l-0.1,266.7L0,267.5C0,267.5,0,36.2,0,0.7z"/>
</g>
<g id="Layer_4_1_">
	<path class="st4" d="M0-311.3c0,0,145.7-8.3,274,94.1C448.5-78.1,531.7-371.7,641.8-224s253.4-87.3,358.2-87.3l-0.1,199.8L0-111.5
		C0-111.5,0-284.7,0-311.3z"/>
</g>
</svg>
